HIERARCHY
ROOT Hips
{
	OFFSET -0.001795 -0.223333 0.028219
	CHANNELS 6 Xposition Yposition Zposition Zrotation Yrotation Xrotation 
	JOINT LeftUpLeg
	{
		OFFSET 0.069520 -0.091406 -0.006815
		CHANNELS 3 Zrotation Yrotation Xrotation
		JOINT LeftLeg
		{
			OFFSET 0.034277 -0.375199 -0.004496
			CHANNELS 3 Zrotation Yrotation Xrotation
			JOINT LeftFoot
			{
				OFFSET -0.013596 -0.397961 -0.043693
				CHANNELS 3 Zrotation Yrotation Xrotation
				JOINT LeftToe
				{
					OFFSET 0.026358 -0.055791 0.119288
					CHANNELS 3 Zrotation Yrotation Xrotation
					End Site
					{
						OFFSET 0.000000 0.000000 0.000000
					}
				}
			}
		}
	}
	JOINT RightUpLeg
	{
		OFFSET -0.067670 -0.090522 -0.004320
		CHANNELS 3 Zrotation Yrotation Xrotation
		JOINT RightLeg
		{
			OFFSET -0.038290 -0.382569 -0.008850
			CHANNELS 3 Zrotation Yrotation Xrotation
			JOINT RightFoot
			{
				OFFSET 0.015774 -0.398415 -0.042312
				CHANNELS 3 Zrotation Yrotation Xrotation
				JOINT RightToe
				{
					OFFSET -0.025372 -0.048144 0.123348
					CHANNELS 3 Zrotation Yrotation Xrotation
					End Site
					{
						OFFSET 0.000000 0.000000 0.000000
					}
				}
			}
		}
	}
	JOINT Spine
	{
		OFFSET -0.002533 0.108963 -0.026696
		CHANNELS 3 Zrotation Yrotation Xrotation
		JOINT Spine1
		{
			OFFSET 0.005487 0.135180 0.001092
			CHANNELS 3 Zrotation Yrotation Xrotation
			JOINT Spine2
			{
				OFFSET 0.001457 0.052922 0.025425
				CHANNELS 3 Zrotation Yrotation Xrotation
				JOINT Neck
				{
					OFFSET -0.002778 0.213870 -0.042857
					CHANNELS 3 Zrotation Yrotation Xrotation
					JOINT Head
					{
						OFFSET 0.005152 0.064970 0.051349
						CHANNELS 3 Zrotation Yrotation Xrotation
						End Site
						{
							OFFSET 0.000000 0.000000 0.000000
						}
					}
				}
				JOINT LeftShoulder
				{
					OFFSET 0.078845 0.121749 -0.034090
					CHANNELS 3 Zrotation Yrotation Xrotation
					JOINT LeftArm
					{
						OFFSET 0.090977 0.030469 -0.008868
						CHANNELS 3 Zrotation Yrotation Xrotation
						JOINT LeftForeArm
						{
							OFFSET 0.259612 -0.012772 -0.027456
							CHANNELS 3 Zrotation Yrotation Xrotation
							JOINT LeftHand
							{
								OFFSET 0.249234 0.008986 -0.001171
								CHANNELS 3 Zrotation Yrotation Xrotation
								End Site
								{
									OFFSET 0.000000 0.000000 0.000000
								}
							}
						}
					}
				}
				JOINT RightShoulder
				{
					OFFSET -0.081759 0.118833 -0.038615
					CHANNELS 3 Zrotation Yrotation Xrotation
					JOINT RightArm
					{
						OFFSET -0.096012 0.032551 -0.009143
						CHANNELS 3 Zrotation Yrotation Xrotation
						JOINT RightForeArm
						{
							OFFSET -0.253742 -0.013329 -0.021401
							CHANNELS 3 Zrotation Yrotation Xrotation
							JOINT RightHand
							{
								OFFSET -0.255298 0.007772 -0.005559
								CHANNELS 3 Zrotation Yrotation Xrotation
								End Site
								{
									OFFSET 0.000000 0.000000 0.000000
								}
							}
						}
					}
				}
			}
		}
	}
}
MOTION
Frames: 16
Frame Time: 0.050000
-1.440508 0.807282 0.458399 3.924607 -27.149678 15.091440 -8.114488 -0.808150 -63.862433 1.287388 0.843967 45.919808 0.179491 -1.822659 -6.104908 0.000000 0.000000 0.000000 -0.049949 8.744545 -43.402906 30.310184 -9.083282 63.765827 -17.905037 -42.190088 2.429633 0.000000 0.000000 0.000000 -7.420853 7.596577 46.238200 3.799559 -0.062279 -29.371191 2.427781 10.178528 29.238783 -14.445807 6.562789 -53.706989 0.000000 0.000000 0.000000 -35.439740 -8.565590 4.431557 -32.487828 -15.147703 -2.223940 -23.180369 -67.265680 19.719314 0.000000 0.000000 0.000000 12.700872 26.656836 12.350361 45.996458 37.338147 7.603421 -5.575279 63.574446 0.471117 0.000000 0.000000 0.000000 
-1.470339 0.815107 0.473881 4.229787 -26.001387 15.774640 -7.582765 -1.042424 -62.327206 1.559680 0.690913 46.003644 0.750805 -0.972313 -7.271449 0.000000 0.000000 0.000000 -1.107959 8.481198 -44.259107 32.929233 -11.341030 63.090334 -20.338422 -42.833745 10.345322 0.000000 0.000000 0.000000 -7.945254 7.321052 45.140618 2.343735 0.239420 -30.052078 2.783072 7.972576 30.262611 -16.255445 6.999197 -52.979297 0.000000 0.000000 0.000000 -34.941939 -9.259704 6.011333 -32.268511 -17.737227 -1.970755 -16.877212 -66.564800 15.602055 0.000000 0.000000 0.000000 12.025622 27.367729 12.182422 48.166925 37.064099 7.942411 -2.588093 64.347615 2.089963 0.000000 0.000000 0.000000 
-1.499417 0.829306 0.488438 4.186581 -24.882729 15.482401 -5.620334 -0.587332 -59.027590 1.558625 0.776917 44.401052 0.366619 -1.465083 -6.332036 0.000000 0.000000 0.000000 -3.368155 7.868379 -45.342118 36.371952 -14.257482 62.775379 -19.734282 -38.194905 19.808425 0.000000 0.000000 0.000000 -9.004520 7.618706 45.069658 2.886420 0.077406 -29.117209 2.801269 6.780193 28.959185 -16.195643 7.058443 -51.517092 0.000000 0.000000 0.000000 -36.313958 -9.978192 6.914415 -30.438402 -19.736491 -1.570996 -14.031740 -67.127285 13.841734 0.000000 0.000000 0.000000 11.640973 27.901890 12.252494 49.124730 35.753983 7.713090 -1.510592 66.023188 2.721004 0.000000 0.000000 0.000000 
-1.525035 0.843463 0.501806 2.802211 -25.163107 15.681484 -2.357965 1.086812 -56.851910 0.643707 1.570661 44.275093 0.009060 -1.956547 -5.580241 0.000000 0.000000 0.000000 -7.884307 6.988894 -47.382741 40.300131 -17.250036 62.510660 -17.231791 -33.379712 24.618941 0.000000 0.000000 0.000000 -9.607309 8.005896 45.125860 4.044443 -0.008605 -30.172244 2.988281 6.739530 29.812391 -16.911096 7.340233 -50.857487 0.000000 0.000000 0.000000 -36.015961 -10.432163 7.402324 -31.721185 -20.953936 -1.384442 -14.364340 -67.215273 14.337324 0.000000 0.000000 0.000000 10.919898 27.548479 11.899737 50.041758 34.020260 7.092322 -0.413182 67.156676 3.493129 0.000000 0.000000 0.000000 
-1.547800 0.855251 0.513646 2.506097 -23.516608 16.024533 -0.552897 1.316608 -55.522819 -0.244219 1.905518 43.927434 -0.242944 -2.325916 -4.899065 0.000000 0.000000 0.000000 -13.455777 5.264917 -49.692674 40.497455 -18.847815 62.145299 -19.187519 -35.977353 24.214461 0.000000 0.000000 0.000000 -8.506986 7.017910 45.104431 4.587489 -0.027299 -30.603132 2.658348 5.209547 29.224223 -16.741729 7.343320 -49.630938 0.000000 0.000000 0.000000 -37.628241 -10.361699 7.896242 -30.954806 -21.974867 -1.241535 -14.702475 -68.296628 14.878631 0.000000 0.000000 0.000000 10.633190 26.772169 11.319747 49.661723 33.156215 6.598008 0.361758 66.092276 3.661890 0.000000 0.000000 0.000000 
-1.569371 0.862527 0.523877 1.077646 -23.692293 16.682694 2.597931 2.893088 -54.210368 -0.518574 2.267615 44.372668 -0.987877 -4.160891 -5.340798 0.000000 0.000000 0.000000 -17.742041 4.281280 -52.127344 37.264831 -16.573590 59.740622 -21.301775 -39.891415 21.952496 0.000000 0.000000 0.000000 -7.158044 6.330402 45.183225 4.581045 -0.091086 -30.122226 3.070311 5.573730 28.791600 -17.311884 7.556176 -49.333869 0.000000 0.000000 0.000000 -38.665904 -10.524210 8.033649 -30.858083 -24.075636 -0.773557 -15.789888 -69.615244 16.092554 0.000000 0.000000 0.000000 10.665443 27.183788 11.538527 46.512544 32.762472 5.802412 -7.131230 66.007655 -1.246392 0.000000 0.000000 0.000000 
-1.591954 0.866131 0.533056 0.217711 -23.115576 16.961252 3.851780 3.209324 -53.027310 -0.017958 2.019751 44.645585 -1.290923 -5.250871 -6.219838 0.000000 0.000000 0.000000 -21.616637 2.913689 -52.521494 32.610935 -12.844142 54.186043 -21.653204 -41.505027 20.477679 0.000000 0.000000 0.000000 -5.696548 5.434160 45.277329 5.837409 -0.251662 -30.375549 2.980507 5.733220 28.401950 -16.955213 7.524078 -48.822054 0.000000 0.000000 0.000000 -40.242512 -10.446493 7.971197 -30.639211 -24.686739 -0.621518 -18.863877 -69.666958 18.271963 0.000000 0.000000 0.000000 11.056354 27.247852 11.677200 43.921387 31.593277 4.886086 -9.257357 64.989459 -2.669864 0.000000 0.000000 0.000000 
-1.616790 0.865335 0.541333 -0.278708 -22.725866 17.411085 6.181351 4.276283 -52.564102 -0.281661 2.164102 44.755601 -1.841025 -6.956754 -7.066093 0.000000 0.000000 0.000000 -24.145017 2.003259 -51.988097 26.614756 -8.502860 46.800658 -18.784245 -39.936807 15.496686 0.000000 0.000000 0.000000 -4.415036 4.532568 44.533928 6.042993 -0.254412 -30.579270 3.421477 5.335929 28.187816 -17.379319 7.764522 -47.407989 0.000000 0.000000 0.000000 -40.443967 -9.490175 7.465259 -31.940575 -25.661376 -0.350836 -25.049505 -69.231746 22.757791 0.000000 0.000000 0.000000 10.569749 26.844045 11.285132 43.981360 31.789267 4.968273 -11.705158 63.679892 -4.204615 0.000000 0.000000 0.000000 
-1.645010 0.863129 0.548557 -0.218809 -22.857704 17.579844 7.861480 4.922983 -50.980364 -0.560796 2.362797 43.844480 -1.506255 -7.426946 -9.711232 0.000000 0.000000 0.000000 -26.417716 1.364512 -52.126664 21.482541 -5.508234 40.344671 -15.499571 -35.271634 15.974958 0.000000 0.000000 0.000000 -3.689942 4.132632 44.227529 6.966579 -0.260682 -31.589688 2.995217 5.276186 28.417523 -16.498646 7.602871 -46.131067 0.000000 0.000000 0.000000 -40.188171 -8.630970 6.863147 -32.804348 -25.684513 -0.305664 -31.021172 -68.420188 26.782251 0.000000 0.000000 0.000000 13.477795 27.809906 12.201439 41.864140 30.565522 4.196350 -15.617343 61.612772 -6.438544 0.000000 0.000000 0.000000 
-1.676901 0.858922 0.553915 1.244779 -21.249036 16.925763 9.125132 4.805867 -49.699660 -0.994940 2.290748 42.648288 -1.113575 -6.554319 -9.730493 0.000000 0.000000 0.000000 -27.329549 0.548885 -51.106860 17.256060 -3.829355 37.660253 -11.975728 -29.546903 16.222898 0.000000 0.000000 0.000000 -2.679031 3.351938 44.497728 7.843460 -0.388581 -31.437098 1.542604 4.635123 27.479822 -15.115792 7.360999 -44.052596 0.000000 0.000000 0.000000 -40.296986 -9.883817 7.787645 -31.925156 -24.682220 -0.500781 -32.933920 -66.719294 27.012559 0.000000 0.000000 0.000000 14.910413 27.624385 12.370486 41.393788 30.196501 4.063144 -17.016650 59.169672 -6.926764 0.000000 0.000000 0.000000 
-1.711108 0.854872 0.555846 2.475247 -19.604675 16.139085 10.065111 4.649896 -49.128858 -1.494409 2.294022 42.328104 -1.094617 -5.756058 -7.948942 0.000000 0.000000 0.000000 -26.659885 0.219905 -49.369742 17.170274 -4.007474 38.745030 -11.254052 -28.244805 14.064125 0.000000 0.000000 0.000000 -0.894566 2.254172 45.387720 5.857379 -0.164048 -31.333495 2.063726 3.193021 26.196585 -14.460742 7.344128 -40.757633 0.000000 0.000000 0.000000 -40.966164 -11.065254 9.043511 -31.377008 -24.605779 -0.494592 -30.343700 -65.124873 24.258200 0.000000 0.000000 0.000000 15.760539 27.275867 12.147685 40.531061 29.046357 3.676235 -17.839049 58.040564 -7.398335 0.000000 0.000000 0.000000 
-1.743734 0.851832 0.553960 3.289179 -18.973191 15.729911 11.888686 5.240972 -48.525358 -2.642703 2.774129 41.691667 -0.853221 -4.177176 -5.719634 0.000000 0.000000 0.000000 -26.651236 -0.002138 -49.970937 18.649552 -4.926863 40.939584 -11.535264 -28.639591 13.307691 0.000000 0.000000 0.000000 0.206250 1.642918 45.803691 6.255090 -0.272925 -30.847604 1.582549 2.932466 26.061825 -12.882405 6.698541 -40.838365 0.000000 0.000000 0.000000 -40.313704 -12.235831 9.932818 -32.240066 -23.815289 -0.566599 -30.871829 -66.171759 25.136633 0.000000 0.000000 0.000000 15.792291 27.072893 12.040305 39.815497 27.964621 3.254711 -19.601665 57.121098 -8.257864 0.000000 0.000000 0.000000 
-1.773848 0.851310 0.549976 4.142008 -19.744544 15.778489 13.079563 5.858110 -47.719971 -3.789032 3.338136 40.073519 -0.077749 -1.583836 -3.732962 0.000000 0.000000 0.000000 -25.461253 0.560322 -51.351631 18.858692 -4.938370 41.523739 -12.311336 -30.305426 12.453658 0.000000 0.000000 0.000000 1.245406 1.329237 46.025483 5.919168 -0.307054 -30.090419 1.528124 2.476397 25.453491 -12.512009 6.446320 -40.860889 0.000000 0.000000 0.000000 -40.629450 -12.548110 10.621435 -32.903790 -23.465916 -0.645787 -31.186546 -65.507642 25.103632 0.000000 0.000000 0.000000 14.914888 26.886684 11.580305 39.647512 27.129619 3.043087 -18.065745 55.843366 -7.435191 0.000000 0.000000 0.000000 
-1.801906 0.852143 0.545448 5.248928 -19.845055 15.967094 13.877335 6.064023 -47.011224 -4.903263 3.649640 37.758580 0.784668 1.447565 0.081277 0.000000 0.000000 0.000000 -25.243665 0.626402 -52.565922 20.338695 -5.764661 42.641799 -12.037170 -30.073522 11.006788 0.000000 0.000000 0.000000 2.470348 0.728274 45.817810 6.282207 -0.296234 -30.576493 0.924796 1.208172 25.761641 -12.504383 6.321934 -40.414630 0.000000 0.000000 0.000000 -40.999972 -12.888969 11.740350 -33.819594 -22.711379 -0.983235 -32.976505 -64.635868 26.060605 0.000000 0.000000 0.000000 16.124647 26.403111 11.170980 38.070690 25.662356 2.427127 -13.741119 55.852453 -5.443414 0.000000 0.000000 0.000000 
-1.828018 0.853214 0.541652 6.423071 -20.334196 15.710499 14.718820 6.317859 -45.809168 -5.779873 3.817018 35.059748 1.371524 3.503044 3.943159 0.000000 0.000000 0.000000 -24.603617 0.967226 -53.513144 20.399154 -5.789659 43.419179 -11.683583 -29.693659 9.777821 0.000000 0.000000 0.000000 4.154489 0.069477 46.128131 5.331510 -0.209534 -30.172457 0.903595 -0.313015 25.298410 -12.209244 5.940784 -41.176343 0.000000 0.000000 0.000000 -40.926750 -13.546427 13.204285 -34.823692 -22.724065 -1.089277 -35.548967 -63.571033 27.429573 0.000000 0.000000 0.000000 15.606673 26.432818 10.642297 38.211860 24.326299 2.159743 -12.286181 55.598169 -4.988239 0.000000 0.000000 0.000000 
-1.851456 0.853684 0.539743 7.860412 -20.731661 15.180476 15.288008 6.357651 -44.569018 -7.116182 4.254717 33.104985 3.295673 7.586421 7.859717 0.000000 0.000000 0.000000 -24.696669 0.999623 -53.940696 21.042724 -6.149711 44.387968 -10.956480 -28.493208 7.962929 0.000000 0.000000 0.000000 5.448693 -0.481069 45.651241 4.984822 -0.137666 -30.399317 0.503866 -2.013539 25.668884 -12.546595 5.838442 -41.592924 0.000000 0.000000 0.000000 -41.341040 -13.955357 14.711806 -35.701620 -22.880184 -1.313058 -36.535367 -60.858912 26.844518 0.000000 0.000000 0.000000 17.150669 25.911789 9.991062 36.824573 22.545167 1.636776 -7.756507 55.106084 -2.942091 0.000000 0.000000 0.000000 
